<svg xmlns="http://www.w3.org/2000/svg" viewBox="0 0 200.35 193.59"><defs><style>.cls-1{fill:#00a551;}</style></defs><g id="Layer_2" data-name="Layer 2"><g id="Layer_1-2" data-name="Layer 1"><path class="cls-1" d="M200.23,164.37c-1.31-84.78-2-127.22-25.78-146.66C151.94-.56,114.52-.24,97.12.08A96.65,96.65,0,0,0,76.35,2.34,100.46,100.46,0,0,0,40,18.89,97.55,97.55,0,0,0,3.59,68.42,77.77,77.77,0,0,0,0,93a126.3,126.3,0,0,0,9.57,47.49c6.31,15.69,14.79,27.29,25,34.92,8,5.91,15.22,9.89,21.86,12s15.66,3.22,27,3.22H86.9c13,0,22.95-1.07,29.69-3.33s14.9-7,24.47-14.08c6-4.51,9.79-6.76,11.2-6.76q2.94,0,3.92,14.18c.32,5.26,1.09,8.38,2.39,9.35s5.22,1.82,11.75,2.79c5.76.54,10.55.75,14.46.75a35.13,35.13,0,0,0,7.18-.43c2.07-.32,6.2-1.07,8.27-1.39C200.33,185.21,200.44,175.65,200.23,164.37ZM99,146.32c-4.57,7-16.64,11-25.45,8.05C60.69,150.08,50.79,142,41.76,128.16c-10.65-18.27-11.63-39.33,1.31-59.85,12.4-19.77,31.1-28.69,54.7-27.83,7.62.33,13.6,2.58,15.77,10.43,2.29,8.38,3,16.76-5,23.1-5.87,4.62-12.07,8.81-18.05,13.43-10,7.84-11.31,15.36-4.46,26.11,2.72,4,6,7.62,8.81,11.6C99.41,131.6,104.41,138.15,99,146.32Zm47.31-37.39c-13.59,10.2-28.71,11.6-44.59,4.94-5.11-2.15-8.48-5.27-7.94-11.18C94.4,96.46,96,90.55,103.1,88.3c5.33-1.62,10.66-2.9,15.88-4.52C127.9,81,130.73,76.16,128.77,67c-.65-3.33-2.07-6.77-2.94-10.1-1.41-5.58-3.15-11.28,2.72-15.58,5-3.54,14.25-3.11,19.47,1.08,7.61,6.23,12.4,14.29,14.79,26C165.31,83.57,160.42,98.18,146.28,108.93Z"/></g></g></svg>