<svg xmlns="http://www.w3.org/2000/svg" viewBox="0 0 1150.38 325.26"><defs><style>.cls-1{fill:#fff;}</style></defs><g id="Layer_2" data-name="Layer 2"><g id="Layer_1-2" data-name="Layer 1"><path class="cls-1" d="M159.43,113.05c-.54-3.07-1.55-9.3-2.09-12.42l-28-1c-7-.19-20.92-.53-27.89-.68.29-3.56.83-9.45,1.25-14.18,1.13-10.62,2.38-17.64,3.81-21.1s4.23-7.26,8.47-11.4a28.78,28.78,0,0,1,9.29-6.43c2.8-1,7.21-1.56,13.11-1.56q14.85,0,17.35-2c1.13-.93,1.67-5,1.67-12.13a84.43,84.43,0,0,0-.42-10c-.42-4.88-1.25-14.57-1.67-19.4C149.83.54,140.71.19,136.18,0H132c-10.13,0-18.06.68-23.66,2.1C100.36,3.9,91.6,7.8,82.07,13.64S65.56,25.14,61.33,30.41C52.27,41.52,45.12,59,39.75,83c-.83,4-2.56,11.94-3.39,15.93-4.36.15-13,.49-17.35.68l-17.34,1c-.24,4.63-.6,11.45-1,20.56S0,137.17,0,141.75H11.44q12.26,0,15.2,1.76,3.41,1.76,4.65,75.38c1.13,49.32,2.38,98.78,3.81,101.36q.54,1,33.86,2.78c2.5.14,4.88.19,7.15.19q26.1.07,25.15-11.45c-.18-20-.24-68.85-.24-99.6s-.12-53.9-.36-69.34q9.75-.37,29-.73t29-.69c.42-1.95,1.13-5.26,1.67-7.94a29.39,29.39,0,0,0,.42-6.24A73.33,73.33,0,0,0,159.43,113.05Z"/><path class="cls-1" d="M335,292.61c-1.31-84.77-2-127.21-25.78-146.66-22.51-18.27-59.93-17.94-77.33-17.62a96,96,0,0,0-20.77,2.26,100.43,100.43,0,0,0-36.33,16.54,97.55,97.55,0,0,0-36.43,49.53,77.83,77.83,0,0,0-3.59,24.61,126.34,126.34,0,0,0,9.57,47.49c6.31,15.69,14.79,27.29,25,34.92,8,5.91,15.22,9.88,21.86,12s15.66,3.22,27,3.22h3.48c13.05,0,23-1.07,29.69-3.33s14.9-7,24.47-14.07c6-4.51,9.79-6.77,11.2-6.77q2.94,0,3.92,14.18c.32,5.27,1.09,8.38,2.39,9.35s5.22,1.83,11.75,2.79c5.76.54,10.55.76,14.46.76a35.13,35.13,0,0,0,7.18-.43c2.07-.33,6.2-1.08,8.27-1.4C335.06,313.45,335.17,303.89,335,292.61ZM233.7,274.56c-4.57,7-16.64,11-25.45,8.06-12.83-4.3-22.73-12.36-31.76-26.22-10.66-18.26-11.63-39.32,1.31-59.84,12.4-19.77,31.1-28.69,54.7-27.83,7.62.32,13.6,2.58,15.77,10.42,2.29,8.38,3,16.76-5,23.1-5.87,4.62-12.07,8.81-18.05,13.43-10,7.84-11.31,15.37-4.46,26.11,2.72,4,6,7.63,8.81,11.6C234.14,259.84,239.14,266.39,233.7,274.56ZM281,237.17c-13.59,10.21-28.71,11.6-44.59,4.94-5.11-2.15-8.48-5.26-7.94-11.17.65-6.23,2.28-12.14,9.35-14.4,5.33-1.61,10.66-2.9,15.88-4.51,8.92-2.8,11.75-7.63,9.79-16.76-.65-3.33-2.07-6.77-2.94-10.1-1.41-5.59-3.15-11.28,2.72-15.58,5-3.55,14.25-3.12,19.47,1.07,7.61,6.23,12.4,14.29,14.79,26C300,211.81,295.15,226.43,281,237.17Z"/><path class="cls-1" d="M483.37,100.18q-1-3-6-4.17c-1.59-.52-5.69-.75-12.37-.75a233.49,233.49,0,0,0-29.36,1.91c-10,1.27-17.46,2.78-22.38,4.57-4.39,1.28-7.21,1.91-8.5,1.91-2.87,0-6.56-2.66-11.19-8q-8.09-8.08-25.55-8c-1.17,0-2.34,0-3.51.06q-20.31.94-21.1,5.38a56.56,56.56,0,0,0-.76,7.58c-.12,2-.17,3.82-.17,5.44,0,1.28.05,2.15.05,2.55.18,7.35-.7,9.61.3,11.69.76,1.68,3,4,11.19,4.46.35,6.95.7,13.9,1,20.9,2.57,59.45,2.81,117.4,1.05,173.66,5.57.58,14.94,1.57,22.38,2.32a134.37,134.37,0,0,0,15.47.75,92.1,92.1,0,0,0,10.43-.46c2.47-.35,3.75-.81,4.05-1.45q5-7.38,6.74-80.17c1.17-48.57,1.81-72.83,1.81-72.94,2.82-9.09,9-14.53,18.4-16.38s22.74-3.07,39.79-3.77c5.45,1.39,8.32-2.54,8.61-11.69s.47-14.53.53-16.27C484.31,108.63,484,102.26,483.37,100.18Z"/><path class="cls-1" d="M758.39,265.65c-.52-22.73-1-34.08-2.25-42.29-2.44-16.53-5.11-34.58-16.73-52.72-9.59-15-19.14-19.89-22.09-21.73a44.5,44.5,0,0,0-11-4.41,173.24,173.24,0,0,0-18.19-3.93,76.31,76.31,0,0,0-37.3,4Q632,151.32,625.44,160c-1.27,1.71-3.77,5.15-5.05,6.86-.6-3.52-1.66-9.36-2.48-14.06q-2.11-11.12-10.07-23.29c-5.28-8.1-10.94-14.26-16.92-18.39-3.88-2.51-9.07-4.08-15.6-4.64-8.29-.71-23.6-3.42-39.48,5.6-8.22,4.67-13.73,10.73-17.92,15.33a111.65,111.65,0,0,0-12.36,16.74c-11.55,18.25-16.41,33.37-17.87,32.76-.42-.17-.6-1.7.71-8.07-1.17-1.83-3.87-2.94-8.11-3.31a51.31,51.31,0,0,0-9.44.12c-9.81.89-15.67,2.52-17.6,5-3,34.53-8.85,103.66-11.81,138.23q.75,2.89,6.58,7.32c3.87,2.91,9.29,4.7,16.28,5.3l5.87.5c7.09.61,18.42.45,20.11-1.58s3-8.32,3.92-18.74l.68-7.79a292.31,292.31,0,0,1,4.63-55.22c5.07-27.88,9.92-52.86,28.08-67.74a49.87,49.87,0,0,1,15.9-8.77h0a21.17,21.17,0,0,1,4.11-.09c5.84.5,11.4,4.52,16.63,12a44.28,44.28,0,0,1,6.32,13.46c1,4.11,1.75,11.14,2.21,21.16q2.88,52.71.68,81.69c-1,11.11-.93,18.15.17,21.19,1,1.77,5.29,4,12.87,6.73S600.29,322.6,605,323c3.62.31,6.05-.33,7.31-1.91q2.7-3.83,7.15-42.78,3.62-29.22,9.2-44.58t18.21-31.09Q660.6,186,673.13,187a21.34,21.34,0,0,1,9.86,3.78,24.88,24.88,0,0,1,7.22,9.19c3.76,8.19,4.39,42.43.42,89l-2.38,27.17c-.24,5.09,4.47,8.07,14.1,8.89.91.08,1.88.12,2.9.17a63.2,63.2,0,0,0,33.66-8.39c6.66-6,11.26-11.39,13.85-16.12s4.2-11.15,4.9-19.1A150.27,150.27,0,0,0,758.39,265.65Z"/><path class="cls-1" d="M831.77,166.57c-1.68-7.79-4.53-20.84-6.77-31.23-6.89-30.53-10.64-47.33-11.36-50.49Q808,59.56,803.45,44.49c-3.08-10.06-5.71-16.75-8-20.07q-8.15-16.5-48.7-9.51c-7.83,3.21-11.86,6.25-12.25,9.07Q735,29.62,755,125.05q14.78,68,20.71,90.35t19,58.77c4.14,11.72,11.08,31.24,16.68,46.89.39,1.21,7.61,1.21,21.54-.06a66,66,0,0,0,9.07-1.33c8.28-1.77,13-4.81,14.27-9.23Q852.75,281.58,831.77,166.57Z"/><path class="cls-1" d="M1006.29,62.6q-.27-11.81-5.63-13.72A37.42,37.42,0,0,0,988.07,47c-11.49.46-19.52,1.74-24.09,3.76a19,19,0,0,0-8.79,8.05q-3.08,5.47-6.68,18.23-2.1,7.21-9,22.93a310.86,310.86,0,0,0-12.95,34.62c-1.53,4.68-4.57,14.06-6.1,18.75q-13.35-23.1-26.66-47.12Q880,81.19,867,56.75a16.5,16.5,0,0,0-7.15-2.25c-3.17,0-8.91,1.85-17.29,5.61-12,4.75-18,8.28-18,10.54,0,3,3.58,13.37,10.61,31.2s12.42,29.93,16,36.47c19.46,32.3,33.11,53.83,52.74,64.6.53.29,1.17.58,2,1a4.11,4.11,0,0,1,1.64.92,7.07,7.07,0,0,0,1.23.93,7.32,7.32,0,0,1,1.29.92c.24.29.53.58.88.93a2,2,0,0,1,.53,1.33,2.78,2.78,0,0,1,.53,1.16,5.64,5.64,0,0,1,.23,1.85c0,3.53-3.51,17-10.43,40.58-5.8,19.34-8.67,32.07-8.67,38.38a19.62,19.62,0,0,0,5.39,13.72c3.63,3.88,9.84,7.82,18.69,11.81,3.69,1.79,9.85,4.75,14.77,7.18,4-1.33,7.38-5.62,10.37-12.85s8-18.18,15.12-32.88c4-11.23,9-26,14.82-44.35S985,193.37,992.75,168c6.8-21.54,11-41.8,12.43-60.61q1.49-18.84,1.46-32.36C1006.7,70.42,1006.52,66.31,1006.29,62.6Z"/><path class="cls-1" d="M1134.67,10.58,1131,9.92q-13.21-2.41-21-1.5-10.86,1.08-25.08,8.15c-9.49,4.71-16.56,9.54-21.27,14.41-12.46,13-19,27.11-29,52.06-2.07,5.32-3.64,9.31-6,16.24-14.65,43.91-16.5,78.61-27.44,125.62-10,43.13-14.31,69.69-11.67,82.61.16.77,9.87,3.54,29,8.2,2.19.55,4.26,1,6.17,1.33,15.21,2.77,23.23,0,24.19-8.2q5.55-31.53,14.36-80.17t13-73.12c5.72.72,14.2,2,25.42,3.77s19.7,3,25.37,3.77c.78-2.05,2-5.43,3-8.15a47.62,47.62,0,0,0,1.57-6.48,99.29,99.29,0,0,0,1.62-15.14c.12-3.38.4-10.09.51-13.47-6-1.33-18.07-4-24.13-5.38l-24.19-5.1c1-3.66,2.53-9.81,3.82-14.74,3-11,5.5-18.19,7.35-21.62s5.11-7,9.6-10.7c3.53-2.89,6.67-4.66,9.31-5.33s6.57-.49,11.73.39c8.64,1.55,13.8,1.72,15.54.56,1.18-.83,2.42-5,3.82-12.53a101.1,101.1,0,0,0,1.51-10.59c.57-5.21,1.69-15.52,2.25-20.68Z"/></g></g></svg>